<?xml version="1.0" encoding="UTF-8" standalone="no"?>
<svg
   xmlns:dc="http://purl.org/dc/elements/1.1/"
   xmlns:cc="http://creativecommons.org/ns#"
   xmlns:rdf="http://www.w3.org/1999/02/22-rdf-syntax-ns#"
   xmlns:svg="http://www.w3.org/2000/svg"
   xmlns="http://www.w3.org/2000/svg"
   xmlns:xlink="http://www.w3.org/1999/xlink"
   xmlns:sodipodi="http://sodipodi.sourceforge.net/DTD/sodipodi-0.dtd"
   xmlns:inkscape="http://www.inkscape.org/namespaces/inkscape"
   id="svg2"
   viewBox="0 0 95.0 95.0"
   version="1.0"
   sodipodi:docname="elk.svg"
   width="95.0mm"
   height="95.0mm"
   inkscape:version="0.92.3 (2405546, 2018-03-11)">
  <sodipodi:namedview
     pagecolor="#ffffff"
     bordercolor="#666666"
     borderopacity="1"
     objecttolerance="10"
     gridtolerance="10"
     guidetolerance="10"
     inkscape:pageopacity="0"
     inkscape:pageshadow="2"
     inkscape:window-width="640"
     inkscape:window-height="480"
     id="namedview23"
     showgrid="false"
     inkscape:zoom="2.4069411"
     inkscape:cx="118.11399"
     inkscape:cy="164.18709"
     inkscape:current-layer="layer2"
     borderlayer="true"
     inkscape:document-units="mm">
    <inkscape:grid
       id="grid28"
       units="mm"
       type="xygrid"
       empspacing="1"
       spacingy="2.54"
       spacingx="2.54" />
    <inkscape:grid
       spacingx="2.54"
       spacingy="2.54"
       empspacing="1"
       type="xygrid"
       units="mm"
       id="grid881" />
  </sodipodi:namedview>
  <defs
     id="defs25">
    <pattern
       inkscape:collect="always"
       xlink:href="#pattern1021"
       id="pattern1641"
       patternTransform="matrix(0.82798489,0,0,0.82798489,1.9069752,3.4356244)" />
    <pattern
       inkscape:collect="always"
       xlink:href="#pattern1025"
       id="pattern1607"
       patternTransform="matrix(0.94754623,0,0,0.94754623,1.9069752,3.4356244)" />
    <pattern
       patternTransform="matrix(0.56121285,0,0,0.56121285,1.9069752,3.4356244)"
       id="pattern1025"
       xlink:href="#pattern2436"
       inkscape:collect="always" />
    <pattern
       patternTransform="matrix(0.57841336,0,0,0.57841336,1.9069752,3.4356244)"
       id="pattern1021"
       xlink:href="#pattern2477"
       inkscape:collect="always" />
    <pattern
       patternTransform="scale(1.8104988)"
       id="pattern2477"
       xlink:href="#pattern2436"
       inkscape:collect="always" />
    <pattern
       patternTransform="matrix(0.6221812,0.00504504,-0.00558283,0.68850403,0,0)"
       id="pattern2436"
       xlink:href="#Checkerboard-0"
       inkscape:collect="always" />
    <pattern
       inkscape:collect="always"
       xlink:href="#Checkerboard-7"
       id="pattern2612-4"
       patternTransform="matrix(2.311751,0,0,2.311751,-99.750912,-7.6062373)" />
    <pattern
       inkscape:stockid="Checkerboard"
       id="Checkerboard-7"
       patternTransform="translate(0,0) scale(10,10)"
       height="2"
       width="2"
       patternUnits="userSpaceOnUse"
       inkscape:collect="always">
      <rect
         id="rect1806-6"
         height="1"
         width="1"
         y="0"
         x="0"
         style="fill:black;stroke:none" />
      <rect
         id="rect1808-9"
         height="1"
         width="1"
         y="1"
         x="1"
         style="fill:black;stroke:none" />
    </pattern>
    <pattern
       inkscape:collect="always"
       xlink:href="#Checkerboard-4"
       id="pattern2612-1"
       patternTransform="matrix(2.311751,0,0,2.311751,-99.750912,-7.6062373)" />
    <pattern
       inkscape:stockid="Checkerboard"
       id="Checkerboard-4"
       patternTransform="translate(0,0) scale(10,10)"
       height="2"
       width="2"
       patternUnits="userSpaceOnUse"
       inkscape:collect="always">
      <rect
         id="rect1806-1"
         height="1"
         width="1"
         y="0"
         x="0"
         style="fill:black;stroke:none" />
      <rect
         id="rect1808-7"
         height="1"
         width="1"
         y="1"
         x="1"
         style="fill:black;stroke:none" />
    </pattern>
    <pattern
       inkscape:collect="always"
       xlink:href="#pattern2612-0"
       id="pattern2705-6"
       patternTransform="matrix(0.68688873,-1.1162542,1.1162542,0.68688873,-92.151889,-145.7515)" />
    <pattern
       inkscape:collect="always"
       xlink:href="#Checkerboard-0"
       id="pattern2612-0"
       patternTransform="scale(0.61165078)" />
    <pattern
       inkscape:isstock="true"
       inkscape:stockid="Checkerboard"
       id="Checkerboard-0"
       patternTransform="translate(0,0) scale(10,10)"
       height="2"
       width="2"
       patternUnits="userSpaceOnUse"
       inkscape:collect="always">
      <rect
         id="rect1806-8"
         height="1"
         width="1"
         y="0"
         x="0"
         style="fill:black;stroke:none" />
      <rect
         id="rect1808-4"
         height="1"
         width="1"
         y="1"
         x="1"
         style="fill:black;stroke:none" />
    </pattern>
    <pattern
       patternTransform="matrix(2.351551,0.01906787,-0.02110046,2.60222,-100.29352,-5.6310102)"
       id="pattern2436-5"
       xlink:href="#Checkerboard-0-6"
       inkscape:collect="always" />
    <pattern
       inkscape:isstock="true"
       inkscape:stockid="Checkerboard"
       id="Checkerboard-0-6"
       patternTransform="translate(0,0) scale(10,10)"
       height="2"
       width="2"
       patternUnits="userSpaceOnUse"
       inkscape:collect="always">
      <rect
         id="rect1806-8-2"
         height="1"
         width="1"
         y="0"
         x="0"
         style="fill:black;stroke:none" />
      <rect
         id="rect1808-4-8"
         height="1"
         width="1"
         y="1"
         x="1"
         style="fill:black;stroke:none" />
    </pattern>
    <pattern
       patternTransform="matrix(2.351551,0.01906787,-0.02110046,2.60222,-100.29352,-5.6310102)"
       id="pattern2436-2"
       xlink:href="#Checkerboard-0-0"
       inkscape:collect="always" />
    <pattern
       inkscape:isstock="true"
       inkscape:stockid="Checkerboard"
       id="Checkerboard-0-0"
       patternTransform="translate(0,0) scale(10,10)"
       height="2"
       width="2"
       patternUnits="userSpaceOnUse"
       inkscape:collect="always">
      <rect
         id="rect1806-8-7"
         height="1"
         width="1"
         y="0"
         x="0"
         style="fill:black;stroke:none" />
      <rect
         id="rect1808-4-2"
         height="1"
         width="1"
         y="1"
         x="1"
         style="fill:black;stroke:none" />
    </pattern>
    <pattern
       patternTransform="matrix(1.8104988,0,0,1.8104988,-50.999953,-146.29095)"
       id="pattern2477-3"
       xlink:href="#pattern2436-4"
       inkscape:collect="always" />
    <pattern
       patternTransform="matrix(0.6221812,0.00504504,-0.00558283,0.68850403,0,0)"
       id="pattern2436-4"
       xlink:href="#Checkerboard-0-3"
       inkscape:collect="always" />
    <pattern
       inkscape:isstock="true"
       inkscape:stockid="Checkerboard"
       id="Checkerboard-0-3"
       patternTransform="translate(0,0) scale(10,10)"
       height="2"
       width="2"
       patternUnits="userSpaceOnUse"
       inkscape:collect="always">
      <rect
         id="rect1806-8-1"
         height="1"
         width="1"
         y="0"
         x="0"
         style="fill:black;stroke:none" />
      <rect
         id="rect1808-4-22"
         height="1"
         width="1"
         y="1"
         x="1"
         style="fill:black;stroke:none" />
    </pattern>
    <pattern
       patternTransform="matrix(2.1211195,0,0,2.1211195,-5.0927696,-10.929454)"
       id="pattern1025-7"
       xlink:href="#pattern2436-8"
       inkscape:collect="always" />
    <pattern
       patternTransform="matrix(0.6221812,0.00504504,-0.00558283,0.68850403,0,0)"
       id="pattern2436-8"
       xlink:href="#Checkerboard-0-2"
       inkscape:collect="always" />
    <pattern
       inkscape:isstock="true"
       inkscape:stockid="Checkerboard"
       id="Checkerboard-0-2"
       patternTransform="translate(0,0) scale(10,10)"
       height="2"
       width="2"
       patternUnits="userSpaceOnUse"
       inkscape:collect="always">
      <rect
         id="rect1806-8-4"
         height="1"
         width="1"
         y="0"
         x="0"
         style="fill:black;stroke:none" />
      <rect
         id="rect1808-4-0"
         height="1"
         width="1"
         y="1"
         x="1"
         style="fill:black;stroke:none" />
    </pattern>
    <pattern
       patternTransform="matrix(2.1861293,0,0,2.1861293,-98.987865,-283.94197)"
       id="pattern1021-6"
       xlink:href="#pattern2477-6"
       inkscape:collect="always" />
    <pattern
       patternTransform="scale(1.8104988)"
       id="pattern2477-6"
       xlink:href="#pattern2436-1"
       inkscape:collect="always" />
    <pattern
       patternTransform="matrix(0.6221812,0.00504504,-0.00558283,0.68850403,0,0)"
       id="pattern2436-1"
       xlink:href="#Checkerboard-0-39"
       inkscape:collect="always" />
    <pattern
       inkscape:isstock="true"
       inkscape:stockid="Checkerboard"
       id="Checkerboard-0-39"
       patternTransform="translate(0,0) scale(10,10)"
       height="2"
       width="2"
       patternUnits="userSpaceOnUse"
       inkscape:collect="always">
      <rect
         id="rect1806-8-0"
         height="1"
         width="1"
         y="0"
         x="0"
         style="fill:black;stroke:none" />
      <rect
         id="rect1808-4-9"
         height="1"
         width="1"
         y="1"
         x="1"
         style="fill:black;stroke:none" />
    </pattern>
    <pattern
       inkscape:collect="always"
       xlink:href="#pattern1025-4"
       id="pattern1607-0"
       patternTransform="matrix(3.5812771,0,0,3.5812771,-5.0927696,-10.929454)" />
    <pattern
       patternTransform="matrix(0.56121285,0,0,0.56121285,1.9069752,3.4356244)"
       id="pattern1025-4"
       xlink:href="#pattern2436-9"
       inkscape:collect="always" />
    <pattern
       patternTransform="matrix(0.6221812,0.00504504,-0.00558283,0.68850403,0,0)"
       id="pattern2436-9"
       xlink:href="#Checkerboard-0-21"
       inkscape:collect="always" />
    <pattern
       inkscape:isstock="true"
       inkscape:stockid="Checkerboard"
       id="Checkerboard-0-21"
       patternTransform="translate(0,0) scale(10,10)"
       height="2"
       width="2"
       patternUnits="userSpaceOnUse"
       inkscape:collect="always">
      <rect
         id="rect1806-8-6"
         height="1"
         width="1"
         y="0"
         x="0"
         style="fill:black;stroke:none" />
      <rect
         id="rect1808-4-88"
         height="1"
         width="1"
         y="1"
         x="1"
         style="fill:black;stroke:none" />
    </pattern>
    <pattern
       inkscape:collect="always"
       xlink:href="#pattern1021-68"
       id="pattern1641-0"
       patternTransform="matrix(0.82798488,0,0,0.82798488,-25.574312,2.1165233)" />
    <pattern
       patternTransform="matrix(0.57841336,0,0,0.57841336,1.9069752,3.4356244)"
       id="pattern1021-68"
       xlink:href="#pattern2477-2"
       inkscape:collect="always" />
    <pattern
       patternTransform="scale(1.8104988)"
       id="pattern2477-2"
       xlink:href="#pattern2436-7"
       inkscape:collect="always" />
    <pattern
       patternTransform="matrix(0.6221812,0.00504504,-0.00558283,0.68850403,0,0)"
       id="pattern2436-7"
       xlink:href="#Checkerboard-0-9"
       inkscape:collect="always" />
    <pattern
       inkscape:isstock="true"
       inkscape:stockid="Checkerboard"
       id="Checkerboard-0-9"
       patternTransform="translate(0,0) scale(10,10)"
       height="2"
       width="2"
       patternUnits="userSpaceOnUse"
       inkscape:collect="always">
      <rect
         id="rect1806-8-65"
         height="1"
         width="1"
         y="0"
         x="0"
         style="fill:black;stroke:none" />
      <rect
         id="rect1808-4-3"
         height="1"
         width="1"
         y="1"
         x="1"
         style="fill:black;stroke:none" />
    </pattern>
    <pattern
       inkscape:collect="always"
       xlink:href="#pattern1021-8"
       id="pattern1641-9"
       patternTransform="matrix(3.1293917,0,0,3.1293917,-98.987865,-283.94197)" />
    <pattern
       patternTransform="matrix(0.57841336,0,0,0.57841336,1.9069752,3.4356244)"
       id="pattern1021-8"
       xlink:href="#pattern2477-5"
       inkscape:collect="always" />
    <pattern
       patternTransform="scale(1.8104988)"
       id="pattern2477-5"
       xlink:href="#pattern2436-76"
       inkscape:collect="always" />
    <pattern
       patternTransform="matrix(0.6221812,0.00504504,-0.00558283,0.68850403,0,0)"
       id="pattern2436-76"
       xlink:href="#Checkerboard-0-1"
       inkscape:collect="always" />
    <pattern
       inkscape:isstock="true"
       inkscape:stockid="Checkerboard"
       id="Checkerboard-0-1"
       patternTransform="translate(0,0) scale(10,10)"
       height="2"
       width="2"
       patternUnits="userSpaceOnUse"
       inkscape:collect="always">
      <rect
         id="rect1806-8-77"
         height="1"
         width="1"
         y="0"
         x="0"
         style="fill:black;stroke:none" />
      <rect
         id="rect1808-4-1"
         height="1"
         width="1"
         y="1"
         x="1"
         style="fill:black;stroke:none" />
    </pattern>
  </defs>
  <metadata
     id="metadata20">
    <rdf:RDF>
      <cc:Work>
        <dc:format>image/svg+xml</dc:format>
        <dc:type
           rdf:resource="http://purl.org/dc/dcmitype/StillImage" />
        <cc:license
           rdf:resource="http://creativecommons.org/publicdomain/zero/1.0/" />
        <dc:publisher>
          <cc:Agent
             rdf:about="http://openclipart.org/">
            <dc:title>Openclipart</dc:title>
          </cc:Agent>
        </dc:publisher>
        <dc:title>Cartoon elk</dc:title>
        <dc:date>2008-07-07T19:01:55</dc:date>
        <dc:description>animal, animal, cartoon, cartoon, clip art, clipart, colour, colour, elk, elk, funny, funny, how i did it, image, mammal, mammal, media, png, public domain, svg, </dc:description>
        <dc:source>http://openclipart.org/detail/17635/cartoon-elk-by-lemmling</dc:source>
        <dc:creator>
          <cc:Agent>
            <dc:title>lemmling</dc:title>
          </cc:Agent>
        </dc:creator>
        <dc:subject>
          <rdf:Bag>
            <rdf:li>animal</rdf:li>
            <rdf:li>cartoon</rdf:li>
            <rdf:li>clip art</rdf:li>
            <rdf:li>clipart</rdf:li>
            <rdf:li>colour</rdf:li>
            <rdf:li>elk</rdf:li>
            <rdf:li>funny</rdf:li>
            <rdf:li>how i did it</rdf:li>
            <rdf:li>image</rdf:li>
            <rdf:li>mammal</rdf:li>
            <rdf:li>media</rdf:li>
            <rdf:li>png</rdf:li>
            <rdf:li>public domain</rdf:li>
            <rdf:li>svg</rdf:li>
          </rdf:Bag>
        </dc:subject>
      </cc:Work>
      <cc:License
         rdf:about="http://creativecommons.org/publicdomain/zero/1.0/">
        <cc:permits
           rdf:resource="http://creativecommons.org/ns#Reproduction" />
        <cc:permits
           rdf:resource="http://creativecommons.org/ns#Distribution" />
        <cc:permits
           rdf:resource="http://creativecommons.org/ns#DerivativeWorks" />
      </cc:License>
    </rdf:RDF>
  </metadata>
  <g
     sodipodi:insensitive="true"
     id="g52"
     inkscape:groupmode="layer"
     inkscape:label="[fixed] BG"
     style="display:none">
    <rect
       id="rect50"
       style="fill:#d4aa6c;fill-opacity:1;stroke:none;stroke-width:2.01973104"
       height="94.927361"
       width="94.927361"
       y="9.076586e-007"
       x="0" />
  </g>
  <g
     id="g54"
     inkscape:groupmode="layer"
     inkscape:label="Edge.Cuts"
     style="display:inline">
    <path
       inkscape:connector-curvature="0"
       id="path933"
       d="M9.6913253 5.5359246L9.5029144 5.5513745L9.3187773 5.5892092L9.1384407 5.6471405L8.961427 5.7228701L8.7872606 5.8140982L8.615466 5.9185285L8.4455658 6.0338612L8.2770844 6.157798L8.0644538 6.3248597L7.8516012 6.5035714L7.6388285 6.6936062L7.4264405 6.8946453L7.2147406 7.10637L7.0040324 7.3284617L6.5868063 7.8024706L6.1771924 8.3141221L5.7776209 8.8608663L5.3905219 9.4401527L5.0183255 10.049432L4.6634618 10.686154L4.3283608 11.347769L4.0154529 12.031727L3.8680812 12.381287L3.7271689 12.735477L3.5930189 13.093977L3.4659358 13.456469L3.3462244 13.822635L3.2341875 14.192155L3.1301298 14.564711L3.0343518 14.939984L2.9471608 15.317655L2.8688598 15.697405L2.8001698 16.079386L2.7419848 16.463606L2.6948608 16.849529L2.6593588 17.236622L2.6360388 17.624352L2.6254608 18.012183L2.6281808 18.399583L2.6447568 18.786018L2.6757458 19.170952L2.7217108 19.553853L2.7832118 19.934186L2.8608048 20.311418L2.9550508 20.685014L3.0665074 21.054439L3.1957352 21.419163L3.3432932 21.778646L3.5095658 22.131045L3.6945859 22.474559L3.8983855 22.808717L4.1209962 23.133062L4.3624495 23.447125L4.6227772 23.750446L4.9020105 24.042555L5.2001813 24.322994L5.5173208 24.591296L5.8534608 24.846995L6.2086327 25.08963L6.5828681 25.318735L6.9761987 25.533848L7.3886557 25.734502L7.8202709 25.920231L8.2710756 26.090568L8.9561905 26.325945L9.6491421 26.551554L10.349179 26.7676L11.05555 26.974295L11.767503 27.171846L12.484288 27.360467L13.205152 27.540353L13.929346 27.711718L14.656117 27.874777L15.384714 28.029742L16.114387 28.176807L16.844383 28.316186L18.302341 28.572716L19.752579 28.801005L21.189086 29.002721L22.605854 29.179522L23.996868 29.333089L25.356122 29.465092L26.677605 29.577201L27.955307 29.671061L29.183215 29.748351L30.355322 29.810731L29.972013 30.305787L29.603066 30.813739L29.282211 30.803259L28.96392 30.804359L28.648275 30.816779L28.335352 30.840009L28.025233 30.873739L27.717998 30.917609L27.413722 30.971259L27.112492 31.034319L26.814381 31.106409L26.519473 31.187189L26.227845 31.276279L25.939578 31.373309L25.654751 31.477906L25.373445 31.589724L24.821711 31.833522L24.28501 32.101771L23.763984 32.391548L23.259266 32.69992L22.771496 33.023958L22.301307 33.360739L21.84934 33.707331L21.41623 34.060803L21.002616 34.418231L20.609135 34.776684L20.23642 35.133235L19.885114 35.484954L19.555849 35.828914L19.249264 36.162185L18.965997 36.481843L18.471964 37.068589L18.078842 37.56573L17.791732 37.949836L17.555927 38.285234L17.487527 38.398837L17.432327 38.517701L17.390107 38.640659L17.360617 38.76651L17.343617 38.894049L17.338917 39.022093L17.346217 39.149457L17.365277 39.274939L17.395877 39.397335L17.437777 39.51546L17.490737 39.628113L17.554517 39.734107L17.628877 39.832237L17.713577 39.921327L17.808397 40.000167L17.913072 40.067577L18.009212 40.116667L18.284531 40.248321L18.719364 40.439134L19.294053 40.66572L19.627699 40.785107L19.988936 40.904669L20.375306 41.021475L20.784349 41.132594L21.213611 41.235114L21.660631 41.326084L22.122955 41.402614L22.598123 41.461754L22.308473 41.911798L22.026057 42.367061L21.751 42.827465L21.483436 43.292936L21.22349 43.763394L20.971292 44.238768L20.72697 44.718976L20.490655 45.203945L20.262474 45.693597L20.042558 46.187858L19.831032 46.686648L19.628029 47.189894L19.433677 47.697517L19.248104 48.209442L19.071439 48.725593L18.90382 49.245891L18.745361 49.770263L18.5962 50.29863L18.456452 50.830917L18.326254 51.367047L18.205741 51.906945L18.095049 52.450535L17.994296 52.997736L17.903616 53.548476L17.823126 54.102677L17.752966 54.660262L17.693266 55.221159L17.644136 55.785282L17.605726 56.352564L17.578146 56.922929L17.561456 57.49629L17.556056 58.072581L17.569646 58.988598L17.610446 59.897288L17.678026 60.798294L17.771986 61.691274L17.891897 62.575873L18.037351 63.451743L18.207902 64.318542L18.403143 65.175919L18.622646 66.023516L18.865989 66.860999L19.13275 67.68801L19.422505 68.504205L19.734834 69.309231L20.06931 70.102744L20.425513 70.884388L20.80302 71.653825L21.201408 72.410697L21.620255 73.154663L22.059139 73.885369L22.517635 74.602467L22.995322 75.305607L23.491778 75.994449L24.006577 76.668634L24.539301 77.327816L25.089525 77.971652L25.656825 78.599788L26.24078 79.211878L26.840967 79.80757L27.456965 80.386519L28.088347 80.948373L28.734696 81.492787L29.395584 82.019413L29.190889 82.314544L28.993821 82.615788L28.805142 82.923173L28.625644 83.23673L28.456084 83.556496L28.297218 83.882502L28.149823 84.214779L28.014675 84.553361L27.892551 84.898275L27.784208 85.249562L27.690418 85.607249L27.611968 85.971363L27.549608 86.341951L27.504108 86.719039L27.476238 87.102652L27.466738 87.492829L27.475038 87.721854L27.499318 87.946553L27.538798 88.166312L27.592638 88.380516L27.660028 88.588556L27.740148 88.789822L27.832188 88.983702L27.935329 89.169586L28.048738 89.346852L28.1716 89.514899L28.303099 89.673105L28.442419 89.820869L28.588747 89.957569L28.741247 90.082605L28.899123 90.195373L29.061541 90.295233L29.227782 90.384733L29.397673 90.467033L29.74843 90.611478L30.113781 90.731506L30.493708 90.829986L30.888194 90.909836L31.29722 90.973946L31.720766 91.025246L32.158819 91.066586L32.810286 91.123766L33.453983 91.159676L34.090658 91.178506L34.72106 91.184506L35.966042 91.174606L37.194925 91.163736L38.958226 91.157136L39.802786 91.142966L40.61853 91.116256L41.402384 91.073016L42.151282 91.009316L42.511665 90.968536L42.862156 90.921136L43.202373 90.866656L43.531933 90.804566L43.85109 90.734696L44.160247 90.655796L44.459253 90.565736L44.74796 90.462401L45.026211 90.343654L45.293859 90.207381L45.550748 90.051465L45.796727 89.873772L45.953711 89.73548L46.098097 89.579137L46.230256 89.406607L46.350516 89.219791L46.459209 89.020558L46.556699 88.810802L46.643339 88.592404L46.719479 88.367247L47.218182 88.389067L47.721486 88.401297L48.065147 88.395897L48.404881 88.382307L49.080561 88.346207L49.156081 88.574637L49.242411 88.796209L49.339901 89.009L49.448923 89.211077L49.569824 89.400532L49.702954 89.575411L49.848679 89.733811L50.007332 89.873791L50.25327 90.051504L50.51016 90.20742L50.777831 90.343693L51.056121 90.46244L51.344861 90.565775L51.643886 90.655815L51.953031 90.734715L52.272126 90.804585L52.601589 90.866675L52.941686 90.921155L53.292039 90.968555L53.652266 91.009335L54.400838 91.073035L55.184353 91.116275L55.999783 91.142985L56.84408 91.157155L58.607132 91.163755L60.675877 91.161655L61.654064 91.149815L62.59108 91.122795L63.226406 91.104545L63.856783 91.068945L64.168533 91.041615L64.47714 91.006285L64.781972 90.961755L65.082399 90.906765L65.377788 90.840115L65.667497 90.760575L65.950893 90.666925L66.227353 90.557941L66.496227 90.43242L66.756895 90.289121L67.008719 90.126819L67.251059 89.944313L67.36833 89.839793L67.480788 89.726345L67.588064 89.604512L67.689769 89.474799L67.785519 89.33773L67.874939 89.193829L67.957639 89.0436L68.033259 88.887587L68.101409 88.726295L68.161709 88.560248L68.213769 88.38995L68.257209 88.215925L68.291659 88.038698L68.316779 87.858772L68.332109 87.676693L68.337309 87.492963L68.327409 87.088442L68.297979 86.69066L68.249899 86.299635L68.183969 85.915367L68.100979 85.53787L68.001719 85.167154L67.886971 84.80323L67.757529 84.446103L67.614191 84.09578L67.457751 83.752284L67.288986 83.415613L67.108712 83.085775L66.917704 82.762783L66.716766 82.446653L66.506677 82.137383L66.288232 81.834991L66.936485 81.307856L67.570409 80.763454L68.189585 80.202116L68.793611 79.624178L69.382073 79.029986L69.954557 78.419869L70.51066 77.794166L71.049964 77.153212L71.572059 76.497354L72.076543 75.826917L72.562993 75.142244L73.031008 74.443675L73.480171 73.731538L73.910081 73.006183L74.320318 72.267933L74.710471 71.517136L75.080138 70.75413L75.428904 69.979242L75.756352 69.192822L76.062083 68.395196L76.345676 67.586703L76.606728 66.767689L76.844827 65.93848L77.059558 65.099421L77.250527 64.250848L77.417292 63.393092L77.559466 62.526497L77.676641 61.651399L77.768391 60.768133L77.834301 59.877038L77.873991 58.978456L77.886991 58.072715L77.881591 57.496374L77.865091 56.922954L77.837611 56.352533L77.799301 55.78519L77.750251 55.220998L77.690641 54.660039L77.620551 54.102386L77.540141 53.548115L77.449521 52.997303L77.348825 52.45003L77.238172 51.906369L77.117698 51.366397L76.987539 50.830191L76.84783 50.29783L76.698688 49.769388L76.540249 49.244942L76.37263 48.72457L76.195965 48.208348L76.010392 47.696351L75.816038 47.188659L75.613031 46.685344L75.401498 46.186488L75.18157 45.692163L74.953373 45.202448L74.71704 44.717421L74.472703 44.237157L74.220484 43.761731L73.960518 43.291222L73.692934 42.825705L73.417857 42.36526L73.135413 41.90996L72.845747 41.459881L73.319563 41.400431L73.780554 41.323721L74.226272 41.232671L74.65427 41.13019L75.062095 41.019168L75.447306 40.902537L75.807447 40.783208L76.140078 40.664073L76.712993 40.438076L77.146467 40.247825L77.42092 40.116598L77.51676 40.067688L77.621299 40.000128L77.715959 39.921148L77.800529 39.831958L77.874749 39.733728L77.938369 39.627675L77.991179 39.514984L78.032929 39.396839L78.063379 39.274443L78.082209 39.148981L78.089409 39.021655L78.084709 38.89367L78.067629 38.766189L78.038049 38.640416L77.995739 38.517554L77.940459 38.398788L77.871979 38.285321L77.636475 37.950045L77.349718 37.56607L76.95706 37.069092L76.463594 36.482525L76.180643 36.162963L75.874388 35.829783L75.545476 35.485912L75.194537 35.13428L74.822201 34.777809L74.429112 34.41943L74.015895 34.062066L73.583192 33.708647L73.13164 33.3621L72.66187 33.025349L72.174513 32.701323L71.670213 32.392948L71.149606 32.10315L70.613314 31.834858L70.061982 31.590998L69.780876 31.479142L69.496253 31.374486L69.208176 31.277416L68.916742 31.188266L68.622026 31.107426L68.324101 31.035266L68.023054 30.972126L67.718955 30.918396L67.411894 30.874436L67.101946 30.840606L66.78919 30.817276L66.473706 30.804856L66.155574 30.803656L65.834873 30.813946L65.461925 30.30065L65.074591 29.800907L66.247266 29.736427L67.473145 29.657317L68.746458 29.561917L70.061445 29.448605L71.412343 29.315728L72.793382 29.161617L74.198798 28.984642L75.622825 28.783148L77.059707 28.555487L78.503669 28.300011L79.948946 28.015073L80.670281 27.86104L81.389782 27.699029L82.106726 27.528828L82.820402 27.350223L83.53008 27.163019L84.235043 26.96701L84.934571 26.761986L85.627943 26.547745L86.31444 26.324077L86.99334 26.090776L87.444131 25.92042L87.875715 25.734691L88.288124 25.534037L88.681388 25.318926L89.055548 25.08982L89.410636 24.847185L89.746686 24.591485L90.063731 24.323183L90.361811 24.042746L90.640951 23.750635L90.901192 23.447314L91.142572 23.133251L91.36512 22.808908L91.568866 22.474748L91.753857 22.131235L91.920118 21.778836L92.067668 21.419352L92.196896 21.054628L92.308364 20.685203L92.402614 20.311607L92.480214 19.934376L92.541724 19.554042L92.587684 19.171142L92.618644 18.786207L92.635144 18.399773L92.637644 18.012373L92.627164 17.624541L92.603854 17.236812L92.568374 16.849718L92.521224 16.463795L92.463034 16.079576L92.394344 15.697595L92.316044 15.317844L92.228854 14.940173L92.133064 14.564901L92.02901 14.192345L91.916979 13.822825L91.797294 13.456629L91.670202 13.094137L91.536063 12.735636L91.395151 12.381446L91.247878 12.031977L90.934968 11.348019L90.599866 10.686405L90.245 10.049683L89.872806 9.4404035L89.485704 8.8611171L89.086135 8.3143726L88.676519 7.8027212L88.259292 7.3287123L88.048588 7.1066206L87.836891 6.8948958L87.6245 6.6938567L87.41173 6.503822L87.198879 6.3251103L86.986253 6.1580404L86.761315 5.9945825L86.533577 5.8477644L86.301908 5.7230351L86.184249 5.6706571L86.065191 5.6258451L85.944601 5.5892781L85.822321 5.5616391L85.698218 5.5436081L85.572154 5.5358681L85.443974 5.5390881L85.313562 5.5539751L85.180763 5.5811911L85.045441 5.6214231L84.929237 5.6676231L84.81936 5.7235691L84.715753 5.7884001L84.618333 5.8612611L84.527053 5.9412941L84.441803 6.0276411L84.289168 6.2158463L84.159862 6.4190165L84.053285 6.6302908L83.968855 6.8428078L83.906005 7.0497072L83.859075 7.251481L83.822105 7.4535472L83.794015 7.6564341L83.773795 7.8606695L83.752735 8.2752996L83.750635 8.7016625L83.761895 9.1427891L83.785305 9.5969353L83.818635 10.061166L83.859765 10.532546L83.956885 11.485011L84.059483 12.430848L84.134813 13.222602L84.184833 13.939457L84.209543 14.569509L84.208983 15.100853L84.039228 14.977338L83.874869 14.844263L83.715654 14.701858L83.56133 14.550354L83.411664 14.389978L83.266384 14.220959L83.125239 14.043528L82.987995 13.857912L82.724204 13.463047L82.472996 13.038195L82.232376 12.585191L82.000344 12.105868L81.733907 11.525935L81.462739 10.945686L81.175767 10.374566L81.022898 10.095381L80.861917 9.8220178L80.689309 9.5536791L80.501503 9.2920132L80.297105 9.0418743L80.074722 8.808116L79.956344 8.6988954L79.832939 8.5955908L79.704351 8.4988078L79.570388 8.4091538L79.430873 8.3272345L79.285632 8.2536573L79.134491 8.1890279L78.977275 8.1339537L78.869417 8.1063108L78.757153 8.089017L78.641454 8.081777L78.523309 8.084257L78.403708 8.096136L78.283622 8.11711L78.164041 8.146855L78.045954 8.185053L77.930351 8.231385L77.818204 8.285535L77.710501 8.347185L77.608233 8.416016L77.512393 8.491713L77.423943 8.573956L77.343883 8.662428L77.273173 8.756812L77.154136 8.9513858L77.057786 9.1462368L76.981176 9.3414602L76.921316 9.537152L76.875196 9.7334083L76.839866 9.9303242L76.789696 10.326521L76.755966 10.73159L76.738106 11.149405L76.733406 11.577768L76.739806 12.014484L76.775656 12.904188L76.825616 13.800943L76.857296 14.483465L76.873016 15.102849L76.875116 15.664308L76.865616 16.173058L76.630431 15.911557L76.390921 15.632783L76.265219 15.471973L76.13308 15.288898L75.992808 15.077581L75.842637 14.832042L75.594119 14.428113L75.45641 14.221013L75.308956 14.012606L75.151197 13.804478L74.982529 13.598217L74.80239 13.395411L74.610179 13.197646L74.405338 13.00651L74.187279 12.823592L73.955416 12.650476L73.709173 12.488751L73.447971 12.340005L73.171228 12.205824L72.878361 12.087797L72.568795 11.987509L72.246137 11.910959L72.085427 11.884699L71.925688 11.866729L71.767346 11.857229L71.610809 11.85651L71.456524 11.86471L71.304897 11.88204L71.156377 11.90874L71.011369 11.94501L70.870302 11.99107L70.733582 12.04713L70.601656 12.11341L70.474932 12.19011L70.353837 12.27746L70.238817 12.37566L70.131424 12.480653L70.032554 12.588103L69.857733 12.809644L69.709154 13.038806L69.581615 13.274113L69.469895 13.51409L69.368791 13.757259L69.177628 14.247274L68.976964 14.74948L68.751467 15.276923L68.623812 15.550041L68.483229 15.829387L68.327488 16.114934L68.154356 16.406655L67.961602 16.704522L67.746978 17.008508L67.508248 17.318587L67.243174 17.634731L66.949522 17.956911L66.625047 18.285103L66.26752 18.619278L65.874703 18.959409L65.629795 19.150671L65.343403 19.348684L65.013546 19.55185L64.638231 19.75857L64.215478 19.967244L63.743298 20.176276L63.21972 20.384063L62.64274 20.589007L62.010388 20.78951L61.320676 20.983971L60.571617 21.170786L59.76123 21.348363L58.887527 21.515109L57.948524 21.669414L56.942235 21.809686L55.866683 21.934313L55.627301 21.964413L55.395704 22.003713L55.171888 22.052123L54.955856 22.109513L54.74761 22.175793L54.54715 22.250833L54.354473 22.334523L54.169579 22.426773L54.115209 22.271537L54.043489 22.128878L53.956029 22.000349L53.85444 21.887522L53.740332 21.791952L53.615335 21.715192L53.481042 21.658802L53.339081 21.624352L52.486521 21.500151L51.723666 21.407331L51.024163 21.339901L50.361665 21.291821L49.709824 21.257121L49.042288 21.229751L47.554734 21.173001L47.445401 21.174901L45.884434 21.303353L45.130065 21.371943L44.40529 21.446163L43.719259 21.528053L43.081109 21.619603L42.499982 21.72288L41.985023 21.839899L41.866607 21.879839L41.75444 21.935329L41.649532 22.005399L41.552892 22.089059L41.465492 22.185329L41.388362 22.293225L41.322482 22.411778L41.268872 22.540016L41.070484 22.424142L40.861756 22.319506L40.642718 22.226226L40.413412 22.144416L40.173875 22.074196L39.924142 22.015676L39.664254 21.968956L39.394247 21.934176L38.31873 21.809548L37.31255 21.669296L36.373713 21.51501L35.500222 21.348284L34.690084 21.170726L33.941304 20.98393L33.251886 20.789487L32.620114 20.589091L32.043433 20.384159L31.520132 20.176379L31.048212 19.96735L30.625679 19.758668L30.250538 19.55193L29.920794 19.348737L29.634451 19.150686L29.389516 18.959373L28.996656 18.619231L28.639033 18.285045L28.314421 17.956844L28.020586 17.634655L27.7553 17.318505L27.516333 17.008421L27.301456 16.70443L27.108437 16.406561L26.935047 16.114839L26.779056 15.829293L26.638233 15.549951L26.510348 15.276838L26.284475 14.749414L26.083599 14.247238L25.892805 13.757237L25.792148 13.514064L25.680835 13.273802L25.553839 13.038487L25.405765 12.80932L25.231332 12.58778L25.132592 12.480333L25.025312 12.375406L24.91033 12.277206L24.789254 12.189866L24.66253 12.113166L24.530585 12.046886L24.393846 11.990816L24.25274 11.944746L24.107693 11.908466L23.959134 11.881766L23.807488 11.864416L23.653164 11.856216L23.496608 11.856935L23.338246 11.866435L23.178507 11.884405L23.017816 11.910675L22.695302 11.987245L22.385767 12.087491L22.092945 12.205416L21.816254 12.339442L21.555112 12.48799L21.308931 12.64948L21.077129 12.822336L20.859122 13.004978L20.654326 13.195831L20.462153 13.393314L20.282034 13.595848L20.113366 13.801857L19.955568 14.00976L19.808076 14.217982L19.670288 14.424943L19.421491 14.82877L19.27099 15.074572L19.130389 15.286274L18.997939 15.469811L18.871875 15.631121L18.631899 15.910801L18.396414 16.172799L18.386714 15.664049L18.388414 15.102589L18.403944 14.483206L18.435484 13.800684L18.485444 12.903928L18.521274 12.014225L18.527674 11.577508L18.523174 11.149145L18.505314 10.731331L18.471564 10.326262L18.421394 9.9300664L18.386084 9.7331504L18.339984 9.5368938L18.280124 9.341202L18.203514 9.1459785L18.107184 8.9511273L17.988146 8.7565537L17.917436 8.6621697L17.837336 8.5737197L17.748886 8.4914757L17.653026 8.4157787L17.550758 8.3469477L17.443059 8.2852977L17.330915 8.2311477L17.215311 8.1848157L17.09723 8.1466177L16.977656 8.1168727L16.857574 8.0958987L16.737968 8.0840197L16.619823 8.0815397L16.504123 8.0887797L16.391853 8.1060737L16.283997 8.1337167L16.126777 8.1887927L15.975628 8.2534207L15.830376 8.3269957L15.690846 8.4089107L15.556863 8.4985607L15.428254 8.5953397L15.304843 8.6986404L15.186458 8.8078552L14.964064 9.0415974L14.759676 9.2917359L14.571901 9.5534094L14.399344 9.821768L14.238503 10.095152L14.08586 10.374348L13.79951 10.945468L13.528976 11.5257L13.262935 12.105619L13.031023 12.584938L12.790444 13.037946L12.539222 13.462806L12.275381 13.85768L12.13811 14.0433L11.996943 14.220735L11.851635 14.389756L11.701936 14.550132L11.547602 14.701634L11.388383 14.844033L11.224034 14.9771L11.054308 15.100604L11.05364 14.569256L11.07836 13.939203L11.12841 13.222349L11.20375 12.430595L11.306354 11.484758L11.403474 10.532292L11.444614 10.060912L11.477954 9.5966811L11.501354 9.1425346L11.512674 8.7014086L11.510574 8.2750587L11.489594 7.860428L11.469354 7.6561918L11.441254 7.4533037L11.404254 7.2512363L11.357314 7.0494622L11.294504 6.8425636L11.210194 6.6300465L11.103778 6.4187727L10.974649 6.2156028L10.822201 6.0273976L10.737041 5.9410506L10.645831 5.8610176L10.548481 5.7881566L10.444927 5.7233246L10.335089 5.6673786L10.218891 5.6211786L10.083441 5.5810046L9.9503544 5.5539096L9.8196418 5.5391386L9.6913087 5.5359386L9.6913087 5.5359386"
       style="display:inline;fill:none;fill-opacity:1;fill-rule:evenodd;stroke:#000000;stroke-width:0.23426279;stroke-linejoin:round;stroke-miterlimit:4;stroke-dasharray:none;stroke-opacity:1" />
  </g>
  <g
     id="g56"
     inkscape:groupmode="layer"
     inkscape:label="B.Cu-disabled"
     style="display:none" />
  <g
     id="g58"
     inkscape:groupmode="layer"
     inkscape:label="B.Mask-disabled"
     style="display:none" />
  <g
     id="g60"
     inkscape:groupmode="layer"
     inkscape:label="B.Silk-disabled"
     style="display:none" />
  <g
     id="g62"
     inkscape:groupmode="layer"
     inkscape:label="F.Cu"
     style="display:inline">
    <path
       d="m 46.754425,41.978678 c 0.0013,3.330661 -2.698961,6.031642 -6.030286,6.031642 -3.330682,0 -6.030975,-2.700981 -6.030311,-6.031642 -7.92e-4,-3.331351 2.699629,-6.032332 6.030311,-6.032332 3.331325,0 6.031643,2.700981 6.030286,6.032332 z"
       id="path6675"
       inkscape:connector-curvature="0"
       style="display:inline;fill:#000000;fill-opacity:1;stroke:#000000;stroke-width:1.06438041;stroke-linecap:round;stroke-linejoin:round;stroke-opacity:1" />
    <path
       d="m 60.785434,41.978678 c 0.0013,3.330661 -2.698963,6.031642 -6.030313,6.031642 -3.33066,0 -6.030977,-2.700981 -6.030286,-6.031642 -8.19e-4,-3.331351 2.699626,-6.032332 6.030286,-6.032332 3.33135,0 6.031668,2.700981 6.030313,6.032332 z"
       id="path6677"
       inkscape:connector-curvature="0"
       style="display:inline;fill:#000000;fill-opacity:1;stroke:#000000;stroke-width:1.06438041;stroke-linecap:round;stroke-linejoin:round;stroke-opacity:1" />
    <path
       style="display:inline;fill:#000000;fill-opacity:1;stroke-width:0.26609144"
       inkscape:connector-curvature="0"
       id="path3231"
       d="m 68.623223,39.791743 -0.497599,0.790281 c 0.06395,0.918012 0.09056,1.849329 0.09056,2.793946 0,13.464237 -14.669611,24.395283 -21.776929,24.395283 -5.510739,0 -16.258183,-7.080712 -20.241569,-16.870209 2.027609,11.995415 15.21244,21.274012 21.521468,21.274012 7.107318,0 21.776929,-10.928387 21.776929,-24.392596 0,-2.799294 -0.284728,-5.486821 -0.872785,-7.990717 z" />
    <path
       inkscape:connector-curvature="0"
       id="path3236"
       d="m 69.203841,43.055471 c 0.193881,1.52962 0.291875,3.108978 0.291875,4.727179 0,13.46421 -14.669006,24.392171 -21.776319,24.392171 -5.87998,0 -17.728557,-8.060608 -20.954857,-18.867599 1.105266,12.722537 15.127341,22.800394 21.699089,22.800394 7.109975,0 21.777323,-10.927961 21.777323,-24.392169 0,-3.050088 -0.340051,-5.967927 -1.037111,-8.659976 z"
       style="display:inline;fill:#000000;fill-opacity:1;stroke-width:0.26609144" />
    <path
       inkscape:connector-curvature="0"
       id="path3221"
       d="m 75.105546,48.067504 c 0.01786,0.449708 0.0321,0.9047 0.0321,1.357071 0,16.087879 -13.054887,29.144425 -29.145427,29.144425 -12.575486,0 -23.306652,-7.982586 -27.391163,-19.150448 0.421287,9.203364 5.118706,17.297846 12.149444,22.344027 1.593603,-1.723031 3.886834,-2.812434 6.444331,-2.812434 4.69188,-6e-6 8.512363,3.646275 8.695081,8.203603 0.606524,0.03775 1.215537,0.0632 1.831494,0.0632 0.738746,0 1.468603,-0.03719 2.193581,-0.09128 0.197305,-4.544149 4.009874,-8.175522 8.692074,-8.175522 2.47867,0 4.711309,1.021684 6.297892,2.652955 7.24829,-5.303441 11.961882,-13.867718 11.961882,-23.530582 0,-3.512427 -0.622422,-6.883743 -1.761284,-10.005014 z"
       style="display:inline;fill:#000000;fill-opacity:1;stroke-width:0.26609144" />
    <path
       d="m 55.959936,23.104559 c 6.0243,-0.630625 9.057745,-1.982383 10.510603,-3.193082 4.723119,-3.940817 3.012163,-7.596931 5.854026,-6.78534 2.793946,0.798264 2.785965,3.908891 4.656579,4.789631 2.26179,1.064368 -0.542826,-9.3584126 1.729605,-8.6479469 2.128736,0.6652111 2.386835,5.9444829 5.587921,7.3175009 2.793948,1.19742 -1.758871,-12.3972075 2.128736,-9.4462374 3.858315,2.9269994 9.313184,14.6350234 0.266081,17.8281324 -9.047107,3.19308 -22.471409,4.119073 -26.875235,3.991367 -4.523554,-0.133012 -8.690543,-5.348447 -3.858316,-5.854025 z"
       id="path1682"
       inkscape:connector-curvature="0"
       style="display:inline;opacity:1;vector-effect:none;fill:url(#pattern1607);fill-opacity:1;fill-rule:evenodd;stroke:#000000;stroke-width:0.77637613;stroke-linecap:butt;stroke-linejoin:round;stroke-miterlimit:4;stroke-dasharray:none;stroke-dashoffset:0;stroke-opacity:1" />
    <path
       d="M 39.30262,23.104559 C 33.278294,22.473934 30.244847,21.122176 28.79199,19.911477 24.068873,15.97066 25.777193,12.314546 22.937991,13.126137 20.144043,13.924401 20.149363,17.035028 18.281387,17.915768 16.019623,18.980136 18.824211,8.5573554 16.551806,9.2678211 14.42307,9.9330322 14.164948,15.212304 10.963887,16.585322 8.1699142,17.782742 12.722732,4.1881145 8.8351507,7.1390846 4.9768093,10.066084 -0.47805876,21.774108 8.5690459,24.967217 c 9.0471281,3.19308 22.4714301,4.119073 26.8752331,3.991367 4.523552,-0.133012 8.690541,-5.348447 3.858341,-5.854025 z"
       id="path1684"
       inkscape:connector-curvature="0"
       style="display:inline;opacity:1;vector-effect:none;fill:url(#pattern1607);fill-opacity:1;fill-rule:evenodd;stroke:#000000;stroke-width:0.77637613;stroke-linecap:butt;stroke-linejoin:round;stroke-miterlimit:4;stroke-dasharray:none;stroke-dashoffset:0;stroke-opacity:1" />
    <path
       style="display:inline;opacity:1;vector-effect:none;fill:url(#pattern1641);fill-opacity:1;stroke:#000000;stroke-width:0.77637619;stroke-linecap:butt;stroke-linejoin:round;stroke-miterlimit:4;stroke-dasharray:none;stroke-dashoffset:0;stroke-opacity:1"
       d="m 58.607057,78.950145 c -4.808278,0 -8.711133,3.826482 -8.711133,8.54162 0,2.418759 3.902855,2.495482 8.711133,2.495482 1.429019,0 2.758699,0.0083 3.948844,-0.03913 0.07381,-3.872106 -1.187562,-7.888665 -1.187562,-7.888665 0,0 3.135564,2.8998 3.475424,7.668001 1.528196,-0.295568 2.473418,-0.919196 2.473418,-2.235703 0,-4.715138 -3.90187,-8.54162 -8.710124,-8.54162 z"
       id="path1686"
       inkscape:connector-curvature="0" />
    <path
       style="display:inline;opacity:1;vector-effect:none;fill:url(#pattern1641);fill-opacity:1;stroke:#000000;stroke-width:0.77637619;stroke-linecap:butt;stroke-linejoin:round;stroke-miterlimit:4;stroke-dasharray:none;stroke-dashoffset:0;stroke-opacity:1"
       d="m 37.194827,78.950145 c -4.808282,0 -8.709126,3.826482 -8.709126,8.54162 0,1.651197 1.484234,2.213524 3.746238,2.40321 0.277834,-4.866391 3.482445,-7.835508 3.482445,-7.835508 0,0 -1.268268,4.039479 -1.186559,7.921761 0.845604,0.0085 1.730418,0.006 2.667002,0.006 4.808279,0 8.712133,-0.07673 8.712133,-2.495482 -2e-6,-4.71514 -3.903854,-8.541622 -8.712133,-8.541622 z"
       id="path1688"
       inkscape:connector-curvature="0" />
    <rect
       y="77.783066"
       x="43.078625"
       height="3.7474737"
       width="9.6213083"
       id="rect913"
       style="opacity:1;vector-effect:none;fill:#ffffff;fill-opacity:1;stroke:none;stroke-width:0.22926341;stroke-linecap:butt;stroke-linejoin:round;stroke-miterlimit:4;stroke-dasharray:none;stroke-dashoffset:0;stroke-opacity:1" />
  </g>
  <g
     id="g64"
     inkscape:groupmode="layer"
     inkscape:label="F.Mask"
     style="display:none">
    <path
       style="display:inline;fill:#000000;fill-opacity:1;stroke:#000000;stroke-width:1.06438041;stroke-linecap:round;stroke-linejoin:round;stroke-opacity:1"
       inkscape:connector-curvature="0"
       id="path6681"
       d="m 46.754425,41.978678 c 0.0013,3.330661 -2.698961,6.031642 -6.030286,6.031642 -3.330682,0 -6.030975,-2.700981 -6.030311,-6.031642 -7.92e-4,-3.331351 2.699629,-6.032332 6.030311,-6.032332 3.331325,0 6.031643,2.700981 6.030286,6.032332 z" />
    <path
       style="display:inline;fill:#000000;fill-opacity:1;stroke:#000000;stroke-width:1.06438041;stroke-linecap:round;stroke-linejoin:round;stroke-opacity:1"
       inkscape:connector-curvature="0"
       id="path6683"
       d="m 60.785434,41.978678 c 0.0013,3.330661 -2.698963,6.031642 -6.030313,6.031642 -3.33066,0 -6.030977,-2.700981 -6.030286,-6.031642 -8.19e-4,-3.331351 2.699626,-6.032332 6.030286,-6.032332 3.33135,0 6.031668,2.700981 6.030313,6.032332 z" />
  </g>
  <g
     id="g66"
     inkscape:groupmode="layer"
     inkscape:label="F.Silk"
     style="display:none">
    <path
       style="display:inline;fill:none;fill-rule:evenodd;stroke:#000000;stroke-width:0.38818806;stroke-linejoin:round;stroke-miterlimit:4;stroke-dasharray:none;stroke-opacity:1"
       inkscape:connector-curvature="0"
       id="path2399"
       d="m 55.959936,23.104559 c 6.0243,-0.630625 9.057745,-1.982383 10.510603,-3.193082 4.723119,-3.940817 3.012163,-7.596931 5.854026,-6.78534 2.793946,0.798264 2.785965,3.908891 4.656579,4.789631 2.26179,1.064368 -0.542826,-9.3584126 1.729605,-8.6479469 2.128736,0.6652111 2.386835,5.9444829 5.587921,7.3175009 2.793948,1.19742 -1.758871,-12.3972075 2.128736,-9.4462374 3.858315,2.9269994 9.313184,14.6350234 0.266081,17.8281324 -9.047107,3.19308 -22.471409,4.119073 -26.875235,3.991367 -4.523554,-0.133012 -8.690543,-5.348447 -3.858316,-5.854025 z" />
    <path
       style="display:inline;fill:none;fill-rule:evenodd;stroke:#000000;stroke-width:0.38818806;stroke-linejoin:round;stroke-miterlimit:4;stroke-dasharray:none;stroke-opacity:1"
       inkscape:connector-curvature="0"
       id="path3171"
       d="M 39.30262,23.104559 C 33.278294,22.473934 30.244847,21.122176 28.79199,19.911477 24.068873,15.97066 25.777193,12.314546 22.937991,13.126137 20.144043,13.924401 20.149363,17.035028 18.281387,17.915768 16.019623,18.980136 18.824211,8.5573554 16.551806,9.2678211 14.42307,9.9330322 14.164948,15.212304 10.963887,16.585322 8.1699142,17.782742 12.722732,4.1881145 8.8351507,7.1390846 4.9768093,10.066084 -0.47805876,21.774108 8.5690459,24.967217 c 9.0471281,3.19308 22.4714301,4.119073 26.8752331,3.991367 4.523552,-0.133012 8.690541,-5.348447 3.858341,-5.854025 z" />
    <path
       inkscape:connector-curvature="0"
       id="path3172"
       d="m 58.607057,78.950145 c -4.808278,0 -8.711133,3.826482 -8.711133,8.54162 0,2.418759 3.902855,2.495482 8.711133,2.495482 1.429019,0 2.758699,0.0083 3.948844,-0.03913 0.07381,-3.872106 -1.187562,-7.888665 -1.187562,-7.888665 0,0 3.135564,2.8998 3.475424,7.668001 1.528196,-0.295568 2.473418,-0.919196 2.473418,-2.235703 0,-4.715138 -3.90187,-8.54162 -8.710124,-8.54162 z"
       style="display:inline;fill:none;stroke:#000000;stroke-width:0.38818806;stroke-linecap:round;stroke-linejoin:round;stroke-miterlimit:4;stroke-dasharray:none;stroke-opacity:1" />
    <path
       inkscape:connector-curvature="0"
       id="path3329"
       d="m 37.194827,78.950145 c -4.808282,0 -8.709126,3.826482 -8.709126,8.54162 0,1.651197 1.484234,2.213524 3.746238,2.40321 0.277834,-4.866391 3.482445,-7.835508 3.482445,-7.835508 0,0 -1.268268,4.039479 -1.186559,7.921761 0.845604,0.0085 1.730418,0.006 2.667002,0.006 4.808279,0 8.712133,-0.07673 8.712133,-2.495482 -2e-6,-4.71514 -3.903854,-8.541622 -8.712133,-8.541622 z"
       style="display:inline;fill:none;stroke:#000000;stroke-width:0.38818806;stroke-linecap:round;stroke-linejoin:round;stroke-miterlimit:4;stroke-dasharray:none;stroke-opacity:1" />
    <path
       transform="matrix(0.84333873,0,0,1.2415692,19.823644,34.07611)"
       d="m 16.544922,42.292969 a 0.11079129,0.11079129 0 0 0 -0.08789,0.05469 c 0,0 -0.533203,0.918166 -0.533203,2.388672 a 0.11079129,0.11079129 0 0 0 0.111328,0.111328 h 0.345703 a 0.11079129,0.11079129 0 0 0 0.111329,-0.115234 c -0.03397,-1.094378 0.169921,-2.310547 0.169921,-2.310547 a 0.11079129,0.11079129 0 0 0 -0.117187,-0.128906 z"
       id="path3331"
       style="display:inline;fill:#000000;fill-opacity:1;fill-rule:evenodd;stroke:#000000;stroke-width:0.33589065;stroke-linejoin:round;stroke-miterlimit:4;stroke-dasharray:none;stroke-opacity:1"
       inkscape:original="M 16.552734 42.404297 C 16.552734 42.404297 16.035156 43.292293 16.035156 44.736328 L 16.380859 44.736328 C 16.346389 43.625731 16.552734 42.404297 16.552734 42.404297 z "
       inkscape:radius="0.11078021"
       sodipodi:type="inkscape:offset" />
    <path
       style="display:inline;fill:none;stroke:#000000;stroke-width:0.38818806;stroke-linecap:round;stroke-linejoin:round;stroke-miterlimit:4;stroke-dasharray:none;stroke-opacity:1"
       inkscape:connector-curvature="0"
       id="path3157"
       d="m 46.754425,41.978678 c 0.0013,3.330661 -2.698961,6.031642 -6.030286,6.031642 -3.330682,0 -6.030975,-2.700981 -6.030311,-6.031642 -7.92e-4,-3.331351 2.699629,-6.032332 6.030311,-6.032332 3.331325,0 6.031643,2.700981 6.030286,6.032332 z" />
    <path
       style="display:inline;fill:none;stroke:#000000;stroke-width:0.38818806;stroke-linecap:round;stroke-linejoin:round;stroke-miterlimit:4;stroke-dasharray:none;stroke-opacity:1"
       inkscape:connector-curvature="0"
       id="path3159"
       d="m 60.785434,41.978678 c 0.0013,3.330661 -2.698963,6.031642 -6.030313,6.031642 -3.33066,0 -6.030977,-2.700981 -6.030286,-6.031642 -8.19e-4,-3.331351 2.699626,-6.032332 6.030286,-6.032332 3.33135,0 6.031668,2.700981 6.030313,6.032332 z" />
    <path
       style="display:inline;fill:none;stroke:#000000;stroke-width:0.38818806;stroke-linecap:round;stroke-linejoin:round;stroke-miterlimit:4;stroke-dasharray:none;stroke-opacity:1"
       d="m 26.889915,39.464698 c -0.717486,0.482859 -1.499245,0.741525 -2.287862,0.859578 -3.77793,4.91667 -6.029129,11.068084 -6.028083,17.748242 -0.0019,9.764129 4.80339,18.402058 12.173517,23.693071 1.593729,-1.724974 3.888169,-2.81545 6.44734,-2.815444 4.695109,0 8.517278,3.650912 8.69508,8.21263 0.60608,0.03763 1.214943,0.0632 1.830493,0.0632 0.738726,0 1.468655,-0.03626 2.193579,-0.09027 0.191901,-4.549047 4.007273,-8.185556 8.693078,-8.18555 2.48306,0 4.719083,1.025668 6.305913,2.661982 7.248792,-5.304078 11.958404,-13.870819 11.953861,-23.539609 0.0025,-6.679814 -2.247685,-12.830695 -6.025073,-17.747238 -0.790461,-0.117447 -1.573514,-0.376087 -2.292881,-0.860582 0.638608,2.59704 0.946839,5.396274 0.946839,8.317952 0,13.464209 -14.669006,24.392171 -21.776319,24.392171 -6.843872,0 -21.780333,-10.927962 -21.780333,-24.392171 0,-2.921678 0.312219,-5.720912 0.950851,-8.317952 z"
       id="path2383"
       inkscape:connector-curvature="0" />
    <path
       sodipodi:nodetypes="ccccccssscccccccc"
       style="display:inline;fill:none;stroke:#000000;stroke-width:0.38818806;stroke-linecap:round;stroke-linejoin:round;stroke-miterlimit:4;stroke-dasharray:none;stroke-opacity:1"
       d="m 42.208922,22.987656 c 2.46355,3.04327 -2.382518,7.044043 -6.670055,7.170117 -0.945426,0.02743 -2.461964,0.08874 -4.106325,0.007 -0.48298,0.571372 -0.933395,1.172643 -1.35005,1.801404 -6.404832,-0.771657 -11.726175,7.043127 -11.726175,7.043127 0,0 5.026499,2.815592 8.533598,0.455366 -0.638632,2.59704 -0.950851,5.396272 -0.950851,8.31795 0,13.46421 14.936461,24.392171 21.780333,24.392171 7.107313,0 21.776319,-10.927961 21.776319,-24.392171 0,-2.921678 -0.308231,-5.72091 -0.946839,-8.31795 3.504414,2.360226 8.522562,-0.455366 8.522562,-0.455366 0,0 -5.313967,-7.812123 -11.716143,-7.043127 -0.418915,-0.631902 -0.873126,-1.234659 -1.359073,-1.808424 -1.723093,0.08907 -3.492023,-0.144037 -4.4709,-0.172414 -4.317946,-0.126976 -8.859022,-4.055299 -6.32256,-7.19754 -2.368827,-0.37092 -3.477313,-0.347754 -5.685449,-0.442045 -2.098622,0.168493 -4.212339,0.356752 -5.308392,0.641874 z"
       id="path3155"
       inkscape:connector-curvature="0" />
    <path
       inkscape:connector-curvature="0"
       id="path2398"
       d="m 52.136206,62.236543 c -0.609366,1.056388 -1.729605,1.553983 -2.501262,1.106936 -0.768997,-0.444361 -0.899389,-1.663064 -0.290051,-2.719452 0.609366,-1.056387 1.729605,-1.553982 2.501263,-1.106935 0.768999,0.44436 0.899391,1.660404 0.29005,2.719451 z"
       style="display:inline;stroke:#000000;stroke-width:0.38818806;stroke-miterlimit:4;stroke-dasharray:none;stroke-opacity:1" />
    <path
       inkscape:connector-curvature="0"
       id="path2412"
       d="m 43.424381,62.236543 c 0.609339,1.056388 1.72958,1.553983 2.501238,1.106936 0.769021,-0.444361 0.899389,-1.663064 0.290048,-2.719452 -0.609339,-1.056387 -1.729605,-1.553982 -2.501261,-1.106935 -0.768998,0.44436 -0.899391,1.660404 -0.290025,2.719451 z"
       style="display:inline;stroke:#000000;stroke-width:0.38818806;stroke-miterlimit:4;stroke-dasharray:none;stroke-opacity:1" />
    <path
       sodipodi:type="inkscape:offset"
       inkscape:radius="0.11078021"
       inkscape:original="M 16.552734 42.404297 C 16.552734 42.404297 16.035156 43.292293 16.035156 44.736328 L 16.380859 44.736328 C 16.346389 43.625731 16.552734 42.404297 16.552734 42.404297 z "
       style="display:inline;fill:#000000;fill-opacity:1;fill-rule:evenodd;stroke:#000000;stroke-width:0.33589065;stroke-linejoin:round;stroke-miterlimit:4;stroke-dasharray:none;stroke-opacity:1"
       id="path889"
       d="m 16.544922,42.292969 a 0.11079129,0.11079129 0 0 0 -0.08789,0.05469 c 0,0 -0.533203,0.918166 -0.533203,2.388672 a 0.11079129,0.11079129 0 0 0 0.111328,0.111328 h 0.345703 a 0.11079129,0.11079129 0 0 0 0.111329,-0.115234 c -0.03397,-1.094378 0.169921,-2.310547 0.169921,-2.310547 a 0.11079129,0.11079129 0 0 0 -0.117187,-0.128906 z"
       transform="matrix(-0.74915056,0,0,1.2415692,75.707756,34.107357)" />
  </g>
  <g
     id="g68"
     inkscape:groupmode="layer"
     inkscape:label="Drill"
     style="display:none">
    <circle
       style="opacity:1;vector-effect:none;fill:none;fill-opacity:1;stroke:#000000;stroke-width:0.56533796;stroke-linecap:butt;stroke-linejoin:round;stroke-miterlimit:4;stroke-dasharray:none;stroke-dashoffset:0;stroke-opacity:1"
       id="path2646"
       cx="42.226177"
       cy="43.041267"
       r="2.1422234" />
    <circle
       r="2.1422234"
       cy="43.041267"
       cx="53.465767"
       id="circle6355"
       style="opacity:1;vector-effect:none;fill:none;fill-opacity:1;stroke:#000000;stroke-width:0.56533796;stroke-linecap:butt;stroke-linejoin:round;stroke-miterlimit:4;stroke-dasharray:none;stroke-dashoffset:0;stroke-opacity:1" />
  </g>
  <g
     inkscape:groupmode="layer"
     id="layer2"
     inkscape:label="Work"
     style="display:none">
    <circle
       style="display:inline;opacity:1;vector-effect:none;fill:#ffffff;fill-opacity:1;stroke:#000000;stroke-width:0.1724138;stroke-linecap:butt;stroke-linejoin:miter;stroke-miterlimit:4;stroke-dasharray:none;stroke-dashoffset:0;stroke-opacity:1"
       id="path1130"
       cx="64.526062"
       cy="66.30954"
       r="2.7481284" />
  </g>
</svg>
